<svg width="256" height="256" viewBox="0 0 256 256" fill="none" xmlns="http://www.w3.org/2000/svg">
<rect width="256" height="256" rx="56" fill="#FBFBFB"/>
<path d="M226.299 225.691C220.253 231.261 214.28 236.734 208.354 242.249C207.359 243.176 206.314 243.609 204.878 243.607C181.817 243.579 158.757 243.586 135.696 243.586C135.516 243.586 135.336 243.585 135.157 243.58C132.526 243.506 131.873 242.385 133.232 240.274C137.309 233.94 141.366 227.595 145.466 221.274C157.613 202.546 169.785 183.832 181.912 165.093C182.751 163.798 183.731 163.156 185.433 162.989C194.082 162.142 200.876 158.562 205.036 151.335C206.55 148.705 207.092 145.839 207.143 142.909C207.211 139.012 207.148 135.113 207.159 131.216C207.174 125.961 204.839 123.604 199.071 123.104C194.271 122.688 190.035 123.72 186.747 127.173C186.403 127.535 186.09 127.972 185.096 128.059C178.411 112.417 171.689 96.6849 164.923 80.8538C164.115 81.2818 164.048 81.8928 163.848 82.4343C159.791 93.3939 155.737 104.354 151.67 115.311C150.847 117.529 150.466 117.764 147.903 117.765C118.254 117.772 88.6042 117.777 58.9546 117.779C55.4959 117.779 55.3827 117.868 55.382 120.992C55.3794 132.685 55.4266 144.379 55.336 156.071C55.319 158.277 55.9741 160.138 57.244 161.934C61.9988 168.658 66.6876 175.422 71.4708 182.129C74.8983 186.935 79.3384 190.964 83.6426 195.088C88.2379 199.49 92.8898 203.843 97.4856 208.245C98.9041 209.603 100.569 210.219 102.613 210.199C106.806 210.157 110.999 210.179 115.192 210.191C117.487 210.198 118.145 210.817 118.203 212.952C118.205 213.007 118.203 213.062 118.204 213.116C118.304 219.642 118.286 219.627 113.586 224.671C108.18 230.471 102.788 236.281 97.4504 242.134C96.5134 243.161 95.5013 243.605 94.0648 243.604C75.4364 243.581 56.808 243.583 38.1797 243.602C36.9594 243.603 36.0105 243.272 35.1378 242.477C30.9306 238.648 26.6988 234.841 22.4376 231.062C21.4629 230.198 21.0516 229.262 21.0524 228.009C21.0795 185.683 20.8563 143.356 21.1672 101.032C21.3284 79.0759 29.6785 59.571 44.9823 42.7047C60.7092 25.3721 80.853 14.5848 104.844 9.82671C116.218 7.57089 127.723 7.02092 139.296 8.24055C153.91 9.78072 167.799 13.5324 180.604 20.2465C205.518 33.3094 222.153 52.4573 230.248 77.7255C232.787 85.6525 233.952 93.8081 233.959 102.07C233.991 140.278 233.97 178.487 234 216.695C234.001 218.058 233.607 219.085 232.498 220.031C230.395 221.825 228.418 223.742 226.299 225.691Z" fill="#1B1826"/>
<path d="M90.6693 155.294C90.6685 156.749 90.6753 158.03 90.6651 159.31C90.6305 163.652 86.9713 166.871 82.0282 166.915C76.9327 166.961 72.8972 163.822 72.8316 159.517C72.7278 152.708 72.7378 145.897 72.8279 139.087C72.8852 134.752 76.8775 131.62 81.9861 131.69C87.0109 131.758 90.6437 134.897 90.6612 139.229C90.6824 144.526 90.668 149.823 90.6693 155.294Z" fill="#1B1826"/>
<path d="M143.523 131.8C150.235 130.946 154.601 135.138 154.365 140.101C154.063 146.439 154.303 152.795 154.282 159.144C154.267 163.564 150.373 166.934 145.353 166.916C140.193 166.897 136.482 163.659 136.471 159.131C136.454 152.666 136.455 146.201 136.465 139.736C136.471 135.515 138.498 133.2 143.523 131.8Z" fill="#1B1826"/>
</svg>
